<?xml version="1.0" encoding="utf-8"?>
<!-- Generator: Adobe Illustrator 19.2.1, SVG Export Plug-In . SVG Version: 6.00 Build 0)  -->
<svg version="1.1" id="Layer_1" xmlns="http://www.w3.org/2000/svg" xmlns:xlink="http://www.w3.org/1999/xlink" x="0px" y="0px"
	 viewBox="0 0 1000 1000" style="enable-background:new 0 0 1000 1000;" xml:space="preserve">
<g>
	<path d="M552.9,0c8.6,0.6,17.2,1.4,25.8,1.9c24,1.5,47.7,4.9,71.3,9.9c40.1,8.5,78.2,21.9,113.9,42.1
		c32.7,18.5,61.6,41.7,85.9,70.4c36.8,43.3,59.3,93.3,69.9,148.9c3,15.6,5,31.4,7.5,47.5c-261.1,0-521.5,0-782.7,0
		c0.8-7.7,1.3-15.5,2.3-23.1c3.9-27.4,10.1-54.2,19.9-80.2c13.1-34.9,31.5-66.8,56-95c41.3-47.6,93.1-78.7,152.4-98.4
		c27.1-9,54.8-15.2,83.1-18.8c18.4-2.3,37.1-3,55.6-4.5c1.3-0.1,2.6-0.5,3.9-0.8C529.5,0,541.2,0,552.9,0z M642.7,144.3
		c-0.6,28.9,12.3,49.6,37.2,61.9c27.7,13.7,55.1,11.1,80.2-7.2c19.7-14.4,27.8-38.5,25-54.4C737.9,177,690.7,177.1,642.7,144.3z"/>
	<path d="M181.9,0c7.3,2,14.4,4.1,20.3,9.4c10.4,9.2,14.4,24.7,9.5,38.8c-4.4,12.8-18,22.7-31.5,22.8c-22.3,0.1-44.7,0.1-67,0.1
		c-1.8,0-3.6,0-6.1,0c-0.1,1.8-0.2,3.4-0.2,5c-0.3,81-0.8,162-0.8,243c0,60,0.5,119.9,0.7,179.9c0,3,0.8,4.6,3.8,5.1
		c42,6.5,80.4,22.4,116.2,45c34.2,21.6,63.6,48.7,89,80.1c41.6,51.4,69.1,110,87.1,173.3c7.9,27.9,14,56.2,17.7,84.9
		c3.1,23.7,4.6,47.6,6.3,71.4c0.9,13.8,0.7,27.6,1,41.4c-16.3,0-32.7,0-49,0c-1.6-1-3.2-2.1-5-2.9c-40.4-18.7-80.8-37.4-121.2-56.1
		c-58.9-27.3-117.7-54.6-176.6-81.8c-3.2-1.5-4.7-3.1-4.2-6.6c0.6-4.9,0.9-9.9,1.3-14.9c1.2-13.2,2.5-26.4,3.7-39.7
		c1.1-12.4,2.2-24.8,3.3-37.2c1.2-13.2,2.5-26.4,3.7-39.7c1.1-12.4,2.2-24.8,3.3-37.2c1.2-13.2,2.5-26.4,3.7-39.7
		c1.2-12.9,2.5-25.8,3.6-38.7c1-11.5,2-23,3-34.7c-5.4,0-10.5,0.6-15.3-0.1c-27.7-4-46.6-27.8-46.4-54.3c0.4-47,0-94,0.2-141
		c0.1-19.6,8.1-35.7,25.3-45c9.2-5,10.8-10.7,10.7-20.1c-0.4-77.8-0.2-155.6-0.1-233.5c0-4.9-1.4-6.2-6.2-6c-10.5,0.3-21,0.4-31.5,0
		c-14.7-0.5-25.3-8-31-21.2c-5.7-13.2-3.6-25.9,5.6-37.2C15,5,23.6,1.8,32.9,0C82.5,0,132.2,0,181.9,0z"/>
	<path d="M463.9,1000c0.2-2,0.4-4,0.4-5.9c0-167.5,0-335,0-502.5c0-2,0-3.9,0-6.1c-18.1-3.2-35.7-6.4-53.2-9.5
		c-25.4-4.5-50.8-9-76.2-13.5c-23.4-4.2-46.9-8.3-70.3-12.5c-23.4-4.2-46.9-8.3-70.3-12.5c-16-2.8-31.9-5.6-47.8-8.6
		c-1.3-0.2-3.4-1.9-3.4-2.9c-0.2-10.8-0.2-21.6-0.2-32.7c261.8,0,523.2,0,785.1,0c0,11.1,0.1,22-0.1,33c0,0.9-1.6,2.4-2.7,2.6
		c-30.4,5.5-60.9,10.7-91.3,16.2c-30.9,5.5-61.8,11.2-92.8,16.7c-27.2,4.8-54.4,9.5-81.6,14.3c-17.4,3.1-34.8,6.3-52.7,9.5
		c0,171.6,0,343,0,514.5C559.2,1000,511.5,1000,463.9,1000z"/>
	<path d="M642.9,1000c0.7-20.3,0.6-40.7,2.2-60.9c5.1-67.5,17.9-133.4,43.7-196.3c18.5-45,42.6-86.6,74.6-123.4
		c43.4-49.9,95.6-87,159.2-106.7c6.8-2.1,13.6-4,20.5-5.6c6.7-1.6,13.6-2.6,21-4c0.6,4.4,1.3,8.6,1.7,12.8c1.8,18.3,3.4,36.7,5.2,55
		c1.8,18.3,4,36.6,5.8,54.9c1.8,18.3,3.4,36.7,5.2,55c1.8,18.3,4,36.6,5.8,54.9c1.8,18.3,3.4,36.7,5.2,55
		c1.8,18.3,3.9,36.6,5.8,54.9c0.3,2.7,0.7,5.5,1.1,8.2c0,1,0,2,0,3c-88.3,40.9-176.6,81.8-265,122.7c-14.4,6.7-28.7,13.5-43,20.3
		C675.5,1000,659.2,1000,642.9,1000z"/>
</g>
</svg>
