<?xml version="1.0" encoding="utf-8"?>
<!-- Generator: Adobe Illustrator 19.2.1, SVG Export Plug-In . SVG Version: 6.00 Build 0)  -->
<svg version="1.1" id="Layer_1" xmlns="http://www.w3.org/2000/svg" xmlns:xlink="http://www.w3.org/1999/xlink" x="0px" y="0px"
	 viewBox="0 0 1000 1000" style="enable-background:new 0 0 1000 1000;" xml:space="preserve">
<g id="x6kRev.tif">
	<g>
		<path d="M1,998.6c0.7-1.2,1.6-2.4,2.1-3.7c22.6-56.3,45.2-112.6,67.6-169c1.1-2.8,1.4-6.1,1.4-9.2c0.1-140,0-280,0.1-420
			c0-28.6,11.7-50.8,36.6-65.5c10.7-6.4,22.5-9.2,34.8-9.3c23-0.2,46-0.1,69-0.1c0.6,0,1.3,0.2,2.7,0.3c0,2.3,0,4.6,0,6.8
			c0,161.8,0,323.6,0.1,485.5c0,4.7,0.9,9.6,2.6,14c22.5,56.7,45.2,113.3,67.9,169.9c0.3,0.8,0.7,1.5,1.1,2.2c-94,0-188,0-282-0.1
			C3.7,1000.5,0.7,1002.5,1,998.6z"/>
		<path d="M715,1000.6c13-32.2,26-64.4,38.9-96.7c10.2-25.4,20.4-50.9,30.4-76.4c1.5-3.8,2.3-8,2.3-12c0.1-162,0.1-324,0.1-485.9
			c0-2.3,0-4.6,0-6.8c0.8-0.4,1.3-0.8,1.7-0.7c26.2,0.2,52.4-0.6,78.4,0.9c31.6,1.8,59.2,30.4,62.1,61.9c0.5,5.5,0.8,11,0.8,16.5
			c0,138.3,0,276.6,0.1,415c0,3.9,0.8,8,2.2,11.6c22.1,55.6,44.4,111.1,66.7,166.7c0.6,1.5,1.5,2.8,2.3,4.2c-0.3,0.7-0.5,1.8-1,1.9
			c-1.1,0.3-2.3,0.1-3.5,0.1C902.7,1000.6,808.8,1000.6,715,1000.6z"/>
		<path d="M251,322c166.9,0,333.2,0,500,0c0,2,0,3.8,0,5.6c0,163.1,0,326.3,0.1,489.4c0,3.6-1,6.1-3.6,8.7
			c-21.6,21.3-43,42.8-64.4,64.3c-2.4,2.4-4.7,3.5-8.2,3.5c-116-0.1-232-0.1-348,0c-3.3,0-5.5-1-7.8-3.3
			c-21.6-21.8-43.4-43.4-64.9-65.2c-1.7-1.8-3.1-4.8-3.1-7.2C251,654.3,251,490.6,251,327C251,325.5,251,324,251,322z M501,464.7
			c13,0,26,0,39,0c22.8,0,45.6,0.2,68.5-0.1c25.2-0.4,41.6-24.9,32.7-48.5c-5.3-13.9-18.5-22.5-35-22.6c-56.8,0-113.6,0-170.4,0
			c-13.8,0-27.7-0.2-41.5,0c-25.5,0.4-42.1,24.2-33.7,47.9c5,14,18.1,23.1,34,23.2C430.1,464.7,465.6,464.7,501,464.7z M501.5,536.5
			c-24.5,0-49,0-73.5,0c-11.5,0-23-0.2-34.5,0.1c-24.6,0.5-40.9,23.9-33.2,47.1c4.9,14.7,18.5,24,35.5,24c67.6,0,135.3,0,202.9,0
			c3.3,0,6.7,0.1,10,0c25.1-1,41.2-25,32.5-48.4c-5.1-13.9-18.2-22.7-34.3-22.7C571.8,536.4,536.6,536.5,501.5,536.5z"/>
		<path d="M752,286.3c-167.9,0-334,0-500.4,0c-0.2-0.6-0.6-1.2-0.6-1.8c0.3-20-0.4-40.1,1.3-59.9c2.9-33.2,12.7-64.6,29-93.7
			C316.8,68,369,25.3,439.3,8.6c97.9-23.3,182.1,3.4,250,77.9c33.2,36.3,52.7,79.9,59,128.7C751.3,238.5,750.9,262.2,752,286.3z
			 M500.8,196.8c39.4,0.1,71.1-31.3,71.4-70.7c0.3-39.6-31.4-71.5-71-71.7c-39.4-0.1-71.1,31.3-71.4,70.7
			C429.5,164.7,461.2,196.6,500.8,196.8z M679.3,214.7c-0.1-19.8-15.8-35.4-35.6-35.3c-19.5,0.1-35.7,16.3-35.5,35.6
			c0.3,19.5,16.6,35.7,35.8,35.5C663.6,250.3,679.4,234.3,679.3,214.7z"/>
	</g>
</g>
</svg>
