<?xml version="1.0" encoding="utf-8"?>
<!-- Generator: Adobe Illustrator 19.2.1, SVG Export Plug-In . SVG Version: 6.00 Build 0)  -->
<svg version="1.1" id="Layer_1" xmlns="http://www.w3.org/2000/svg" xmlns:xlink="http://www.w3.org/1999/xlink" x="0px" y="0px"
	 viewBox="0 0 1000 1000" style="enable-background:new 0 0 1000 1000;" xml:space="preserve">
<g id="pdwFan.tif">
	<g>
		<path d="M0,408c5.1-12.4,9-15,23-15c8.7,0,17.3-0.1,26,0.1c3.3,0.1,4.4-1,5.1-4.3c11.8-52.7,29.5-103.3,55.8-150.6
			c15.9-28.5,34.5-55.2,56-79.7c40.6-46.2,88.8-82.2,144.2-108.9c36.5-17.6,74.6-30.4,114.1-39.2c1.1-0.2,2.3-0.2,3.7-0.3
			c0,17.9,0,35.5,0,53.1c-14.2,4.3-28.4,8.2-42.5,12.8c-44.8,14.8-85.9,36.4-123.3,65.3c-62.8,48.6-106.1,111.4-134.1,185.2
			c-12.3,32.5-21.2,66-27.2,100.2c-5.1,29-8.9,58-10,87.4c-0.7,19.6-2.3,39.3-1.6,58.9c0.8,23.4,3.3,46.7,5.7,70
			c4.2,40.4,12.5,80,24,118.9c11.6,39.3,26.6,77.2,47.8,112.5c10.6,17.7,22.4,34.6,36.1,50c0.7,0.8,1.4,1.8,2.5,3.2
			c-44.7,0-88.7,0-133.6,0c0-1.7,0-3.6,0-5.5c0-41.2,0.1-82.3-0.1-123.5c0-5-0.8-10.3-2.2-15.1c-9.8-32.3-17.4-65.1-22.5-98.5
			c-2.1-13.9-4.2-27.8-6.4-42.3c-5.6,0-11.4-0.2-17.2,0C12,643.4,3.7,639.3,0,628c0-25.7,0-51.3,0-77c4.5-13.4,12.3-15.7,22.9-15
			c4.6,0.3,9.2,0,14.4,0c0-12.4,0-24,0-36c-4.6,0-9.4,0-14.1,0c-13.7,0-18-2.8-23.2-15C0,459.3,0,433.7,0,408z"/>
		<path d="M1000,628c-3.7,11.3-12,15.5-23.3,14.9c-5.6-0.3-11.3,0-17.3,0c-1.4,10-2.5,19.9-4.3,29.6c-4.4,23.7-8.7,47.5-13.8,71
			c-3,14-7.6,27.7-11.2,41.6c-1.1,4.1-1.8,8.4-1.8,12.7c-0.1,41.3-0.1,82.7-0.1,124c0,2,0,3.9,0,6.1c-44.6,0-88.7,0-133.7,0
			c4.1-4.9,7.9-9.2,11.4-13.6c26.3-33.1,45.8-70.1,60.7-109.6c14.8-39.2,25.8-79.5,32.4-120.9c3.9-24.5,7.7-49.2,9.7-73.9
			c1.9-23,1.7-46.2,1.6-69.3c-0.1-16.1-0.7-32.3-2.4-48.3c-2.4-22.7-5.3-45.4-9.1-68c-5.2-30.5-13.2-60.3-23.7-89.4
			c-17.3-48.1-41.1-92.6-73.8-132.1C748.3,138.8,681.3,96.3,602.3,72c-9.9-3-20-5.7-30.2-8.6c0-17.6,0-35.4,0-54
			c9.2,2.2,18,4.2,26.7,6.5c54,14.4,104.6,36.4,150.9,67.9c33.5,22.8,63.3,49.6,89.5,80.5c47.8,56.6,79,121.6,98.7,192.6
			c2.9,10.5,5.6,21.1,7.9,31.7c0.7,3.3,1.9,4.4,5.2,4.3c8.7-0.2,17.3-0.1,26-0.1c14,0,17.9,2.5,23,15c0,25.7,0,51.3,0,77
			c-5.2,12.2-9.5,15-23.2,15c-4.9,0-9.8,0-15.1,0c0.6,12.4,1.1,23.9,1.6,36c5,0,9.7,0,14.3,0c13.5,0,17.5,2.7,22.4,15
			C1000,576.7,1000,602.3,1000,628z"/>
		<path d="M493,1000c-7.9-1.5-15.9-2.7-23.7-4.7c-33-8.1-64.3-21.2-95.2-35.2c-41.3-18.7-81.4-39.6-120.9-61.6
			c-2.1-1.2-3.8-2.9-6.7-5.2c169.5,0,337.5,0,506.7,0c-2.3,2.1-3.9,3.9-5.8,5.3c-50.3,34.2-103.1,63.8-160.6,84.2
			c-21.9,7.8-44.4,13-67.4,16.1c-3.1,0.4-6.2,0.7-9.3,1.1C504.3,1000,498.7,1000,493,1000z"/>
		<path d="M536,0c-0.2,2-0.4,4-0.4,5.9c0,31.3,0,62.7,0,94c0,2,0,3.9,0,6.3c-23.7,0-47,0-70.8,0c-0.1-1.9-0.2-3.8-0.2-5.8
			c0-31.5,0-63,0-94.5c0-2-0.3-4-0.4-5.9C488,0,512,0,536,0z"/>
		<path d="M571.9,857c0-10.4-0.2-20.4,0.1-30.3c0.1-4.2-0.8-5.8-5.4-5.7c-44.3,0.2-88.7,0.2-133,0c-4.6,0-5.6,1.5-5.5,5.7
			c0.3,9.9,0.1,19.9,0.1,30.3c-2.3,0-4.1,0-5.9,0c-66,0-132,0-198,0.1c-3.8,0-5.9-1.2-7.9-4.4c-24-39.4-40.5-81.8-51.1-126.5
			c-6.4-27-11.3-54.4-15.9-81.7c-2.4-14.4-2.8-29.1-4.4-43.6c-2.8-25.8-2.4-51.6-0.8-77.3c1.3-20.2,3.6-40.3,5.8-60.5
			c3.1-28,9.2-55.4,17-82.4c12.8-44,31.3-85.4,57.7-123.1c32-45.6,72.4-81.6,121.8-107.6c24.5-12.9,50.1-23.1,76.9-30.3
			c1.4-0.4,2.8-0.7,4.7-1.1c0,6.8,0.2,13.1-0.1,19.4c-0.1,3.5,0.7,5,4.7,5c44.8-0.1,89.7-0.1,134.5,0c3.9,0,4.8-1.4,4.7-5
			c-0.2-6.3-0.1-12.6-0.1-19.9c9.9,3.1,19.2,5.8,28.3,8.9c39,13.2,74.8,32.3,107.1,58c43.8,34.9,76.8,78.4,100.6,128.9
			c18.6,39.4,30.7,80.8,38.3,123.7c7.8,43.7,11.1,87.7,10.6,131.9c-0.2,17.2-1.8,34.5-3.8,51.7c-2.8,23.3-5.8,46.7-10.2,69.8
			c-10.3,53.7-27.1,105.2-53.9,153.3c-5.4,9.6-11.2,13.2-22.6,13.1c-62.7-0.7-125.3-0.4-188-0.4C576.3,857,574.3,857,571.9,857z
			 M330.5,428c-0.3,2-0.5,2.6-0.5,3.2c0,22.3,0.1,44.7-0.1,67c0,3.2,1.9,3.8,4,4.6c13.7,5.2,22.9,17.9,23,31.9
			c0.2,14.3-8.8,27.6-22.6,32.6c-3.8,1.4-4.5,3.2-4.5,6.8c0.2,20.7,0.1,41.3,0.1,62c0,1.6,0,3.2,0,4.9c16.5-0.3,38.9-7.9,51.8-17.7
			c1.2-0.9,2.1-3,2.1-4.5c0.1-55.8,0.1-111.7,0-167.5c0-1.6-1.3-3.8-2.6-4.6c-7-4-14-8.5-21.5-11.2
			C350.4,432.3,340.5,430.5,330.5,428z M670,429.5c-0.8-0.3-1.2-0.5-1.5-0.4c-18.4,1.9-35.5,7.8-50.8,18.3c-1,0.7-1.7,2.7-1.7,4.1
			c-0.1,55.8-0.1,111.7,0,167.5c0,1.4,0.7,3.4,1.8,4.2c15.5,10.7,32.7,16.9,51.8,18.2c0.1-0.9,0.3-1.6,0.3-2.2c0-22.3,0-44.7,0.1-67
			c0-3.2-1.8-3.6-4.1-4.5c-13.8-5.2-22.9-18.2-22.9-32.5c0-14.3,9.1-27.1,23.1-32.3c2.9-1.1,4-2.5,3.9-5.7
			c-0.2-20.5-0.1-41-0.1-61.5C670,433.6,670,431.4,670,429.5z M687.8,428.1c-0.5,1.8-0.7,2.3-0.7,2.8c0,22.5-0.1,45,0.1,67.5
			c0,1.5,2,3.7,3.5,4.3c14.6,5.9,23.2,17.9,23.2,32.7c0,14.4-8.8,27.2-22.9,32.3c-3.4,1.2-4.1,2.9-4,6.1c0.1,21,0.1,42,0.1,63
			c0,1.4,0.2,2.9,0.3,4.6c19.1-1.3,36.2-7.5,51.6-18c1.2-0.8,2-3,2-4.5c0.1-55.8,0.1-111.6,0-167.5c0-1.6-1.3-3.8-2.6-4.6
			c-7-4-14-8.5-21.5-11.2C707.5,432.3,697.5,430.6,687.8,428.1z M312.9,641.4c0-2.1,0-3.9,0-5.7c0-20.3-0.1-40.7,0.1-61
			c0-4-1-6-5-7.5c-14.2-5.4-22.2-18-22-33.4c0.2-13.2,9.4-25.9,22.8-30.8c3.2-1.2,4.2-2.8,4.1-6.2c-0.2-21-0.1-42-0.1-63
			c0-1.5-0.1-2.9-0.2-4.6c-1-0.1-1.9-0.3-2.6-0.2c-16.9,2.2-32.8,7.4-47.3,16.7c-2.9,1.9-3.9,3.8-3.9,7.1c0.1,31.7,0.1,63.3,0.1,95
			c0,23.3,0,46.7,0.1,70c0,1.8,0.5,4.3,1.7,5.2C276.2,633.9,293.4,640,312.9,641.4z M500.4,644.4c-23,23-46.3,46.3-68.4,68.4
			c19.4-9.7,40.5-20.1,61.5-30.9c4.6-2.3,8-2.6,12.8-0.1c19,9.9,38.3,19.3,57.4,28.9c2,1,4.1,1.9,5.6,2.6
			C546.3,690.3,522.9,667,500.4,644.4z M240.8,466.1c-35.5,37.3-35.5,100.9,0,138.3C240.8,558.3,240.8,512.3,240.8,466.1z
			 M759.2,604.7c37.4-41.2,33.3-103.7,0-138.4C759.2,512.4,759.2,558.3,759.2,604.7z M597.9,605c0-46.7,0-92.7,0-139
			C566.1,500.3,559.3,560.5,597.9,605z M402.2,466.1c0,46.5,0,92.4,0,138.9C440.5,560.7,434.1,500.6,402.2,466.1z"/>
	</g>
</g>
</svg>
