<?xml version="1.0" encoding="utf-8"?>
<!-- Generator: Adobe Illustrator 19.2.1, SVG Export Plug-In . SVG Version: 6.00 Build 0)  -->
<svg version="1.1" id="Layer_1" xmlns="http://www.w3.org/2000/svg" xmlns:xlink="http://www.w3.org/1999/xlink" x="0px" y="0px"
	 viewBox="0 0 1000 1000" style="enable-background:new 0 0 1000 1000;" xml:space="preserve">
<g id="eDJgs6.tif">
	<g>
		<path d="M1000,813c0,7,0,14,0,21c-0.3,0.8-0.8,1.5-0.9,2.3c-1.8,15.2-9,27.6-20.2,37.7c-15.2,13.7-33.6,18.9-53.6,18.9
			c-50.3,0.1-100.7,0.1-151,0c-3.7,0-6.6,0.9-9.5,3.2c-28.4,22.5-57,44.7-85.4,67.3c-4,3.1-7,4-11.8,1.7
			c-19.6-9.5-39.5-18.6-59.3-27.9c-2.8-1.3-4.9-1.3-7.7,0.4c-31.9,19.9-64,39.6-96,59.6c-3.5,2.2-5.9,2.1-9.3-0.1
			c-31.9-19.9-64-39.7-96-59.6c-2.6-1.6-4.5-1.8-7.2-0.5c-19.7,9.3-39.7,18.3-59.3,27.8c-4.9,2.4-8.1,1.6-12.3-1.6
			c-28.4-22.6-56.9-44.9-85.5-67.1c-2.4-1.8-5.9-3-8.9-3c-50.2-0.2-100.3-0.1-150.5-0.2c-6.6,0-13.3-0.6-19.8-1.9
			c-30.2-5.8-57.5-30.4-55.6-68.3c1-19.8,1.8-39.6,3-59.3c1.1-18.7,2.3-37.5,4.2-56.2c2.1-21.3,4.9-42.5,7.8-63.7
			c2.8-21.2,5.3-42.4,9.4-63.4c7.3-37.3,14.8-74.6,23.8-111.4c17.6-72.3,42-142.3,75.7-208.9c4.1-8.1,8.4-16,12.6-23.9
			c68.5,30.6,147,80.6,200.4,134.6c1.3,1.3,2.7,2.5,4.2,3.5c3.9,2.4,9.2,1.6,12.2-1.7c3.4-3.6,3.5-7.2,0.2-11.6
			c-1.3-1.7-2.9-3.3-4.4-4.8c-19.7-19.4-40.9-37.1-63.1-53.6c-42.2-31.3-87.4-57.7-135-80.1c-1.7-0.8-3.4-1.7-5.1-2.6
			c21.2-35.5,45-68.3,73.3-97.9c1.1,0.7,1.8,1.1,2.4,1.7c24,19.7,46.8,40.5,67.8,63.4c33,35.8,62.3,74.4,87.5,116
			c12.8,21.1,24.1,43.1,35.9,64.8c3.5,6.3,8,9.1,13,7.4c4.2-1.4,7.4-7.5,6.9-12.7c-2.3-21.8-4.3-43.6-6.8-65.4
			c-2.1-18.8-4.3-37.5-7.3-56.2c-3.8-23.3-8.1-46.6-12.7-69.8c-9.4-47.1-21.8-93.3-40.1-137.8c-1.1-2.7-2.2-5.5-3.4-8.5
			C395.1,12.5,428.2,5.1,462.2,2c7.9-0.7,15.9-1.3,23.8-2c9.3,0,18.7,0,28,0c1.3,0.3,2.6,0.7,3.9,0.7c22.4,0.7,44.7,3.3,66.5,8.4
			c17.8,4.2,35.3,9.6,53.2,14.5c-0.9,2.8-1.3,4.4-2,5.9c-26.2,62.1-40.3,127.5-51.5,193.6c-4.2,24.8-7.2,49.8-10.2,74.8
			c-2.6,21.7-4.6,43.6-6.8,65.4c-0.5,4.5,3.2,10.4,7,11.7c4.3,1.4,8.7-0.5,11.8-5.2c0.6-1,1.1-2,1.7-3.1
			c5.5-10.6,10.8-21.3,16.6-31.7c40.9-73.5,91.4-139.5,154.8-195.2c7.1-6.2,14.5-12.1,21.9-18.2c28.4,30.1,52.4,62.8,73.1,97.8
			c-17.6,9-35.2,17.5-52.3,26.9c-51.2,28-98.9,61.1-141.8,100.8c-4.5,4.2-9,8.5-13,13.1c-4.1,4.8-3.4,10,1.3,13.4
			c4.2,3,9.7,1.8,14.7-2.7c16.2-14.6,32-29.7,49-43.3c39.2-31.2,81.6-57.5,126.5-79.8c8.3-4.1,16.6-8,25.2-12.2
			c4.7,8.9,9.3,17.4,13.6,26c28.1,55.9,49.9,114.2,66.1,174.6c9.5,35.4,17.7,71.1,25.6,106.9c5,22.6,8.4,45.5,12.1,68.4
			c2.8,17.3,5.1,34.7,7.2,52.2c2,17.1,3.6,34.3,5.3,51.5c1.4,14.4,2.8,28.8,3.7,43.2c1,16.9,1.5,33.9,2.2,50.9
			C999.2,810.5,999.7,811.7,1000,813z M513.5,804c0,0,0,0.1,0,0.1c13.8,0,27.7,0,41.5,0c29,0,58,0,86.9-0.1c5.8,0,11-4.6,12-10.1
			c0.8-4.5-2.6-9.9-7.8-12.1c-1.7-0.7-3.4-1.3-5.1-1.8c-79.4-19.3-158.8-38.6-238.2-57.7c-16.9-4.1-32.6-1.1-45,11.6
			c-12.2,12.4-15,27.3-8.6,43.6c5.7,14.6,22.3,26.3,38,26.4C429.2,804.1,471.4,804,513.5,804z M599.1,589.6c0.4-0.2,0.8-0.3,1.2-0.5
			c-2.1-5.6-3.7-11.6-6.5-16.8c-5.8-10.4-15.4-16.8-25.8-22.1c-21.5-10.9-44.6-14.6-68.4-14.6c-20.9,0-41.3,3.1-60.6,11.4
			c-13,5.6-25,12.7-32.7,25.1c-4.5,7.3-6.6,15-4.4,23.7c0.7,2.9,1.9,3.2,4.5,3c5.9-0.5,11.8-1.2,17.7-0.8
			c20.1,1.4,38.5,16.9,41.9,38.2c0.4,2.6,1.2,3.4,3.9,3.9c16.5,3,33,3.5,49.7,1.8c8.1-0.8,14.3-1.7,17-12.7
			c5.8-23.3,32.2-35.9,55.8-30.9c4.8,1,5.9-0.6,6.5-4.3C599,592.6,599,591.1,599.1,589.6z M366.8,568.3c-10.3,2.9-19.1,5.1-27.7,7.8
			c-42.8,13.1-83.1,31.1-117.1,61c-24,21.1-42,46-47.5,78.3c-1.2,6.8-1.9,14-0.8,20.8c1.5,9.6,11.3,15.1,21.7,13.9
			c9.3-1.1,15.9-9.2,16.8-19.3c0.6-7,1.5-14.2,3.7-20.9c6.8-21.2,21.1-37,38.1-50.6c26.9-21.5,57.7-35.4,90.1-46.1
			c7.2-2.4,14.4-4.4,21.9-6.7C361.8,593.9,362.1,581.7,366.8,568.3z M634.9,606.7c2.6,0.7,5.4,1.5,8.2,2.4
			c40.1,12.1,78.4,27.9,110.1,56.2c19.7,17.6,34.1,38.3,35,66.2c0.4,11.8,9.2,19.2,21.4,18.6c9.1-0.5,18.3-8.3,17.6-20.1
			c-0.9-14.2-3.6-27.9-9.4-40.8c-12.8-28.7-34.3-49.9-59.5-67.6c-28.9-20.2-60.8-34.1-94.3-44.4c-9.7-3-19.5-5.6-29.8-8.5
			c1.1,6.8,2.6,12.8,2.7,18.8C636.9,593.5,635.6,599.7,634.9,606.7z M615.6,447c-10,0-20,0.1-30-0.1c-3.2-0.1-4.8,1-5.9,3.9
			c-4.2,10.1-4,20.1,1.4,29.6c9.7,17.2,31.3,24.4,49.6,16.6c19.5-8.3,28.5-28.6,20.4-46.3c-1.3-2.7-2.8-4-6-3.9
			C635.3,447.1,625.4,447,615.6,447z M384.5,447c-10,0-20-0.2-30,0.1c-1.8,0.1-4.3,1.6-5.2,3.2c-3.9,7.5-4.4,15.5-1.8,23.6
			c6.6,20.8,30.5,31.7,51.7,23.5c19.5-7.5,28.9-28.1,21.3-46c-1.3-3.1-2.9-4.6-6.6-4.5C404.2,447.2,394.3,447,384.5,447z"/>
		<path d="M408.6,316.7c-46.8-79.3-103-150.8-175.9-208.9c33-31.8,69.8-57.3,112-75.9C381.6,123.4,397.3,219.5,408.6,316.7z"/>
		<path d="M591.4,316.7c11.3-97.2,27-193.2,63.7-284.6C687.4,44,742,81,767.2,107.9C694.6,165.7,638.3,237.2,591.4,316.7z"/>
	</g>
</g>
</svg>
