<?xml version="1.0" encoding="utf-8"?>
<!-- Generator: Adobe Illustrator 19.2.1, SVG Export Plug-In . SVG Version: 6.00 Build 0)  -->
<svg version="1.1" id="Layer_1" xmlns="http://www.w3.org/2000/svg" xmlns:xlink="http://www.w3.org/1999/xlink" x="0px" y="0px"
	 viewBox="0 0 1000 1000" style="enable-background:new 0 0 1000 1000;" xml:space="preserve">
<g id="_x37_zm9Me.tif">
	<g>
		<path d="M1,790c0-1.3,0-2.7,0-4c0.7-1.3,1.5-2.5,2-3.9C49.4,661.5,95.7,540.9,142,420.2c1.2-3.2,1.9-6.7,1.9-10.1
			c0.1-40.3-0.4-80.7,0.3-121c0.4-18.8,1.5-38,5.2-56.4c14.2-71.6,50.8-129.8,108.9-173.9C309.8,19.7,368.5,1.2,433,1
			c45.8-0.1,91.7-0.1,137.5,0c20.3,0,40.5,1.8,60.4,6.2C700.3,22.6,757,58.5,800,115c38.7,50.8,57.7,108.7,57.9,172.6
			c0.2,41.2,0,82.3,0.1,123.5c0,2.7,0.5,5.6,1.5,8.2c41.4,108,82.9,216,124.5,324c5.5,14.3,11.3,28.5,16.9,42.7c0,1.3,0,2.7,0,4
			c-0.5,2-1,4.1-1.5,6.1c-3.8,14.9-12.5,27-22.5,38.2c-18.1,20.4-39.5,37-62.3,51.8c-47.4,31-98.6,53.9-152.2,71.8
			c-54.5,18.3-110.4,31-167.6,37c-22.3,2.3-44.7,3.5-67,5.2c-2.6,0.2-5.2,0.6-7.9,0.9c-12.7,0-25.3,0-38,0c-1.3-0.2-2.6-0.6-3.9-0.7
			c-20.9-1.4-41.8-2.3-62.6-4.4c-20.1-2-40.1-4.7-60-8.2c-34.2-6-67.9-14.2-100.9-24.8c-72.3-23.2-141.3-53.2-200.9-101.5
			C30.1,842.3,7.8,821.7,1,790z M947.7,785.8c-0.6-2-1.2-5.1-2.3-8C904.8,673.4,864,569,823.5,464.5c-14.4-37.2-30.3-73.6-57.1-104
			c-17.1-19.4-37.4-34.2-61.6-43.6c-15.7-6.1-31.9-9.6-48.6-11.2c-18.8-1.7-37.5-1.9-56.1,1.8c-29.1,5.8-55.7,17.7-80.3,34.2
			c-12.5,8.4-25.1,8.2-37.7,0.1c-5.3-3.4-10.6-6.9-16-10c-24.9-14-51.3-23.8-79.9-26.6c-18.7-1.8-37.4-0.5-56.1,2.6
			c-41.2,7-74.3,27.1-100.3,59.4c-19.6,24.3-33.5,51.8-44.7,80.6c-28.4,72.5-56.6,145.1-84.8,217.6C85.6,703,71,740.6,56.3,778.2
			c-1.9,4.9-2.6,9.9-0.6,15c2.6,6.7,9.4,11.6,16.5,11.7c7.7,0.2,14.5-4.9,17.9-13.5c39.3-101,78.7-202.1,118-303.2
			c10.9-28.1,21.3-56.4,37.9-81.8c13.1-20.2,28.9-37.7,50.4-49.3c16.4-8.9,33.9-13.6,52.5-15.3c20.7-1.9,40.9-1.2,61,4.9
			c20.9,6.3,39.6,16.6,57.8,28.3c10.8,6.9,23.1,9.2,35.7,8.8c14.6-0.4,27.5-5.8,39.7-13.9c36.3-24.2,76-34.1,119.7-27.1
			c34.5,5.5,62.1,21.9,83.5,49.3c16.4,21,27.9,44.7,37.5,69.3c38.9,99.6,77.6,199.3,116.4,299c4.6,11.9,9.1,23.8,14.4,35.4
			c3.3,7.3,11.8,10.4,19.3,8.4C941.9,802,947.5,795.1,947.7,785.8z M359.5,537c23.5,0,47,0.1,70.5,0c9.2,0,18.1-1.8,26.3-6.1
			c6.3-3.3,9.4-8.3,9.3-15.7c-0.3-15.5-0.1-31-0.1-46.5c0.1-19.2-6.9-35.8-19.7-49.6c-16.4-17.7-38.4-22.7-61.1-24.9
			c-13.4-1.3-26.8-0.1-40.1,2.7c-25.4,5.4-47.8,16.6-66.5,34.7c-13.3,12.9-19.4,29.8-24.1,47.2c-2.5,9.3-4.4,18.9-2.6,28.5
			c3.4,17.9,18.2,29.6,36.6,29.7C311.8,537.1,335.7,537,359.5,537z M642,537c24,0,48,0.1,72,0c17.9-0.1,32.5-10.8,35.8-28.4
			c1.6-8.2,0.6-17.2-1.1-25.5c-3.8-18.8-10.2-37-24.3-50.8c-24.2-23.9-54.1-35.8-87.8-38.2c-22.2-1.6-43.7,1.9-63.6,12.2
			c-21.4,11.1-33.1,29.9-35.7,53c-2.1,18.9-0.7,38.3-0.9,57.4c-0.1,5.9,2.6,10.1,7.5,13.1c8.6,5.3,18.2,7.1,28,7.2
			C595.4,537.1,618.7,537,642,537z M501.1,680c16.5,0,33,0,49.5,0c2.5,0,4.5,0,4.5-3.5c-0.4-19.3,0.2-38.6-1.2-57.9
			c-1.7-24.2-24.9-47.4-54.4-46.4c-29.5,1-52,24.9-52.3,54.5c-0.2,16.1,0.1,32.3-0.1,48.5c-0.1,4.2,1.5,4.9,5.2,4.9
			C468.5,679.9,484.8,680,501.1,680z M429.5,715.2c0,47.9,0,95.2,0,142.5c18,0,35.7,0,53.2,0c0-47.8,0-95.1,0-142.5
			C464.9,715.2,447.4,715.2,429.5,715.2z M519.2,715.2c0,47.9,0,95.2,0,142.5c18,0,35.7,0,53.2,0c0-47.8,0-95.1,0-142.5
			C554.5,715.2,537,715.2,519.2,715.2z M358,857.9c12.3,0,23.9,0,35.6,0c0-35.6,0-70.8,0-107.1c-11.9,11.9-23.1,23.1-34.1,34.4
			c-1.1,1.1-1.4,3.3-1.4,4.9c-0.1,10-0.1,20-0.1,30C358,832.6,358,845,358,857.9z M608.1,857.8c12.1,0,23.8,0,35.9,0
			c0-23.3,0-46.3-0.1-69.3c0-1.5-1.3-3.3-2.5-4.5c-9.9-10.1-20-20.1-30-30.1c-0.9-0.9-1.9-1.6-3.3-2.7
			C608.1,787.1,608.1,822.2,608.1,857.8z M260,857.9c0,15.2,11.6,26.9,26.6,27.1c12,0.2,27-8.9,27.1-26.7
			c0.1-15.7-11-26.5-26.7-27.2C272.4,830.5,260,843.2,260,857.9z M742,858.3c0-14.9-11.8-27.1-26.5-27.3
			c-14.3-0.2-27.4,12.3-27.2,26.9c0.2,17.2,14.1,27.1,26.8,27.1C730.2,885,742,873.3,742,858.3z"/>
	</g>
</g>
</svg>
