<?xml version="1.0" encoding="utf-8"?>
<!-- Generator: Adobe Illustrator 19.2.1, SVG Export Plug-In . SVG Version: 6.00 Build 0)  -->
<svg version="1.1" id="Layer_1" xmlns="http://www.w3.org/2000/svg" xmlns:xlink="http://www.w3.org/1999/xlink" x="0px" y="0px"
	 viewBox="0 0 1000 1000" style="enable-background:new 0 0 1000 1000;" xml:space="preserve">
<style type="text/css">
	.st0{fill:#020202;}
	.st1{fill:#74B343;}
</style>
<g id="SAhMxL.tif">
	<g>
		<path class="st0" d="M0,924c8.4-7.2,15.7-15.6,23.8-23.2c2-1.9,0.6-2.8-0.6-3.9c-6.7-6.7-13.4-13.5-20.2-20.1
			c-2.1-2.1-2.4-3.1-0.1-5.4C68.4,806,133.8,740.6,199.1,675.1c2.3-2.3,3.4-1.9,5.4,0.1c40,40.1,80,80.2,120.2,120.2
			c2.5,2.5,1.9,3.6-0.2,5.8c-65.2,65.1-130.4,130.3-195.5,195.5c-2.5,2.5-3.9,2.3-6.2-0.1c-6.2-6.5-12.7-12.7-19-19.2
			c-2.1-2.2-3.4-2.9-5.8-0.2C91,985,82.9,991.9,76,1000c-0.3,0-0.7,0-1,0c0.2-1.2-0.9-1.6-1.6-2.3C49.7,974,26,950.3,2.3,926.6
			c-0.6-0.6-1-1.7-2.3-1.6C0,924.7,0,924.3,0,924z"/>
		<path class="st1" d="M971.6,0.1c10.8,0.9,20,5.7,25.1,16.4c5,10.4,4.5,21.1-3,29.9c-11.6,13.7-24.2,26.6-36.5,39.7
			c-46.5,49.6-93.1,99.1-139.7,148.6c-39.2,41.6-78.4,83.2-117.5,124.8c-45,47.8-89.9,95.7-134.8,143.5
			c-20.1,21.4-40.2,42.7-60.3,64.1c-2,2.2-3.1,2-5.1,0c-22.2-22.3-44.5-44.6-66.8-66.8c-2.2-2.2-2.1-3.3,0.1-5.4
			c56.1-52.7,112.2-105.4,168.3-158.1c43.1-40.5,86.1-81.1,129.2-121.7c48.4-45.5,96.9-91,145.3-136.6
			c24.2-22.7,48.3-45.4,72.4-68.2C954.7,4.3,961.9,0.4,971.6,0.1z"/>
		<path class="st0" d="M453.6,672c-41.9-41.9-83.6-83.6-125.6-125.6c7.8-7.8,15.6-15.6,23.3-23.5c2.1-2.1,2.9-0.1,3.9,0.9
			c6.5,6.4,13.1,12.8,19.4,19.5c2.4,2.6,3.8,3.1,6.5,0.2c6.2-6.7,13-12.9,19.3-19.6c2.2-2.3,3.3-2.1,5.5,0.1
			c23.3,23.4,46.6,46.7,70,69.9c2.4,2.4,2.2,3.6-0.1,5.8c-6.6,6.3-12.9,13-19.5,19.3c-2.3,2.2-2.6,3.4-0.1,5.8
			c6.8,6.4,13.2,13.2,19.9,19.7c2,1.9,2.2,3,0.1,5.1C468.6,656.8,461.3,664.3,453.6,672z"/>
		<path class="st0" d="M365.2,735.5c-7.4,7.3-14.7,14.4-21.7,21.7c-2.5,2.7-3.8,2.7-6.5,0c-29.3-29.6-58.8-59-88.3-88.4
			c-2.9-2.9-7.9-5.9-8-9c-0.1-2.9,5-6,7.9-9c4.4-4.5,9.1-8.8,13.4-13.5c2.1-2.3,3.2-2.2,5.3,0c16.6,16.8,33.4,33.5,50.1,50.3
			c14.7,14.7,29.4,29.5,44.2,44.2C362.8,732.9,363.9,734.2,365.2,735.5z"/>
		<path class="st0" d="M390.7,710c-32.9-32.9-65.7-65.7-98.5-98.4c-1.9-1.9-1.6-2.9,0.1-4.6c6.8-6.6,13.5-13.3,20.2-20.1
			c1.9-1.9,2.9-2.3,5.1-0.2c31.9,32,63.8,63.9,95.8,95.8c1.9,1.9,2,2.8,0,4.7C405.7,694.7,398.3,702.4,390.7,710z"/>
	</g>
</g>
</svg>
