<?xml version="1.0" encoding="utf-8"?>
<!-- Generator: Adobe Illustrator 19.2.1, SVG Export Plug-In . SVG Version: 6.00 Build 0)  -->
<svg version="1.1" id="Layer_1" xmlns="http://www.w3.org/2000/svg" xmlns:xlink="http://www.w3.org/1999/xlink" x="0px" y="0px"
	 viewBox="0 0 1000 1000" style="enable-background:new 0 0 1000 1000;" xml:space="preserve">
<style type="text/css">
	.st0{fill:#FFFFFF;}
</style>
<g id="aUEzIy.tif">
	<g>
		<path d="M737,1000c-0.7,0-1.3,0-2,0c-7.9-5.4-16-10.7-23.8-16.3c-3-2.2-5.6-2.5-9.1-1.4c-27.2,8.4-54.9,13.9-83.3,16.1
			c-5.9,0.5-11.9,1.1-17.8,1.7c-10.7,0-21.3,0-32,0c-1.9-0.3-3.9-0.9-5.8-1c-25-1.3-49.5-5.5-73.8-11.7c-2.6-0.7-4-1.6-4.3-4.5
			c-2-16.5-4-33-6.1-49.5c-0.8-6.7-1.8-13.3-2.9-21.1c-5.3,7.8-9.7,14.7-14.5,21.2c-16,21.6-46.2,28.3-69.2,14.5
			c-14.6-8.7-28.9-18-42.3-28.3c-16.2-12.5-21.8-29.9-19.3-50.1c1.3-10.8,6.9-19.6,12.9-28.3c3.5-5.1,6.9-10.3,10.8-16.2
			c-27.4,3.5-53.8,6.9-80.2,10.1c-1.7,0.2-4.4-0.5-5.3-1.7c-6.5-9.1-13.2-18-18.7-27.6C168.1,662.4,86.1,518.8,4.1,375.2
			C3.2,373.7,2,372.4,1,371c0-0.7,0-1.3,0-2c15.5-23,31-46,46.9-69.5c64.9,43.4,129.7,86.6,193.6,129.3c15.4-23,30.6-45.8,46-68.8
			c-64.1-42.8-128.8-86-193.8-129.4c15.2-22.8,30.2-45.3,45.3-67.6c0.8-1.2,3.3-2.1,4.9-2c7.9,0.7,15.9,1.9,23.8,2.9
			c27.6,3.5,55.1,6.9,82.7,10.4c30.2,3.8,60.4,7.8,90.6,11.6c33.7,4.3,67.3,8.6,101,12.8c6.2,0.8,12.5,1.5,18.7,2.2
			c0.1-0.3,0.1-0.6,0.2-0.9c-13.8-7.8-27.6-15.5-41.7-23.4c30.5-50.9,60.6-101.3,90.8-151.8c2.2,1.3,3.9,2.3,5.6,3.4
			c49.8,30.9,99.4,62.1,149.4,92.5c10.2,6.2,15.8,12.9,17.5,25.4c5.9,41.5,13.4,82.7,20.3,124c1.4,8.4,2.9,16.7,4.5,26.2
			c2.2-3.2,3.6-5.3,5.2-7.5c17.2-23.9,48.1-30.3,73-14.7c12.7,7.9,25.3,16.1,37.3,25c18.7,13.8,25.5,32.9,20.7,55.4
			c-1.8,8.2-6.4,15.8-9.6,23.6c0,0,0.8,0.1,1.6,0c17.8-2.3,35.7-4.5,53.5-6.9c3.8-0.5,6.5-0.2,8.8,3.4c10,15.7,21.2,30.7,30.3,47
			c28.1,50.2,43.9,104.3,47.9,161.7c0.2,2.2,1.9,4.9,3.8,6.3c6.8,5,14,9.5,21.1,14.2c0,14,0,28,0,42c-1,8.9-2,17.8-3,26.7
			c-4.6,40.7-15.4,79.6-32.7,116.7C923.6,879.2,857.9,945.4,767.7,987C757.6,991.7,747.2,995.7,737,1000z M730.3,610.6
			c0.8-78-62.8-142.1-141.7-142.8c-78.8-0.7-143.1,62.3-143.4,142.1c-0.3,80.2,63.6,141.7,140,143.1
			C665,754.5,730.2,690.4,730.3,610.6z M698,821.2c9.9,0,17.9-8.1,17.7-17.8c-0.2-9.6-8-17.4-17.6-17.5c-9.8-0.1-17.9,7.9-18,17.6
			C680,813.2,688.1,821.2,698,821.2z M744.8,736.7c-0.1,9.9,7.8,18,17.5,18c9.6,0.1,17.8-8.1,17.8-17.9c0-9.5-7.8-17.5-17.4-17.8
			C753,718.9,744.8,726.9,744.8,736.7z M831.1,765.2c-9.8,0.1-17.6,8.2-17.4,18.1c0.1,9.8,8.4,17.8,18,17.5
			c9.5-0.3,17.3-8.4,17.3-17.8C849,773.3,840.7,765.1,831.1,765.2z M781.6,651.7c-0.1,9.9,7.7,17.9,17.5,18
			c9.7,0.1,17.9-8.2,17.9-17.8c0-9.5-7.9-17.5-17.4-17.8C790,633.8,781.7,641.9,781.6,651.7z M748.3,859.5
			c-9.9,0-17.6,7.9-17.5,17.9c0.1,9.6,8,17.4,17.5,17.5c9.7,0,17.7-8,17.7-17.8C766.1,867.3,758.2,859.5,748.3,859.5z M886.5,652.8
			c-9.9,0-17.7,7.8-17.6,17.8c0,9.6,7.8,17.4,17.4,17.5c9.9,0.1,17.8-7.6,17.8-17.5C904.2,660.6,896.5,652.8,886.5,652.8z"/>
		<path class="st0" d="M478.8,8C439-11.1,390.3,5,367.1,45.1c-23.5,40.5-10.3,88.4,21.8,113.1C418.8,108.2,448.7,58.3,478.8,8z"/>
		<path d="M478.8,8c-30.1,50.2-60,100.2-89.9,150.1c-32.2-24.7-45.3-72.5-21.8-113.1C390.3,5,439-11.1,478.8,8z"/>
		<path d="M694.9,610.8c-0.6,58.6-47,106.6-108,106.8c-58.2,0.2-107-49.5-106.2-107.5c0.8-60.1,48.5-107.3,108.2-107
			C647.1,503.3,695.3,552.3,694.9,610.8z"/>
	</g>
</g>
</svg>
