<?xml version="1.0" encoding="utf-8"?>
<!-- Generator: Adobe Illustrator 19.2.1, SVG Export Plug-In . SVG Version: 6.00 Build 0)  -->
<svg version="1.1" id="Layer_1" xmlns="http://www.w3.org/2000/svg" xmlns:xlink="http://www.w3.org/1999/xlink" x="0px" y="0px"
	 viewBox="0 0 1000 1000" style="enable-background:new 0 0 1000 1000;" xml:space="preserve">
<g id="q6pG3J.tif">
	<g>
		<path d="M0.1,523c0-1.7,0-3.3,0-5c333.2,0,666.5,0,999.7,0c-0.5,24.7-6.6,77.9-11.8,89.2c-55.1,0-110.3,0-165.6,0
			c0,12.1,0,23.8,0,36.1c23.8,0,47.2,0,70.5,0c0,11.8,0,23.1,0,34.9c-2.2,0-4.2,0-6.1,0c-42.7,0-85.3,0-128,0
			c-10.1,0-8.6-1.2-8.7,8.8c-0.1,8.9,0,17.9,0,27.3c-24.1,0-47.5,0-70.9,0c0,12.1,0,23.7,0,35.9c35.7,0,71,0,107,0c0,12.3,0,24,0,36
			c24,0,47.5,0,71.2,0c0,11.7,0,23.1,0,35c-11.9,0-23.5,0-35.6,0c0,12.2,0,24,0,36.1c-36,0-71.4,0-107.5,0c0,12,0,23.6,0,35.6
			c-12,0-23.4,0-35.4,0c0,11.9,0,23.3,0,35.3c-2.5,0-4.4,0-6.4,0c-32,0-64,0.1-96-0.1c-4.5,0-5.7,1.3-5.5,5.7c0.3,7.3,0,14.7,0.1,22
			c0.1,9.9-1.6,8.7,8.7,8.7c8.9,0.1,17.9,0,27,0c0,8.2,0,15.7,0,23.2c-0.9,0.4-1.6,0.9-2.4,1c-25.1,3.5-50.1,8.2-75.3,10
			c-22.2,1.6-44.6,0.2-66.8-0.6c-27.6-1-54.6-6-81.4-12.5c-46.7-11.4-90.9-29.1-132.4-53.4C197.1,902,152.4,863.9,114.4,818
			C79.9,776.3,53,730.3,33.5,680C16.3,635.4,5.7,589.4,1.9,541.7C1.5,535.5,0.7,529.2,0.1,523z"/>
		<path d="M510.1,0c3.1,0.3,6.2,0.6,9.4,1c19.8,2,39.7,3.2,59.4,6c45.8,6.6,89.4,20.7,131.4,39.9c3.3,1.5,4.4,3.1,4.3,6.6
			c-0.2,16.2-0.1,32.3-0.1,48.5c0,1.5-0.1,2.9-0.2,4.8c-11.6,0-23.1,0-34.9,0c0,12.1,0,23.9,0,36.1c23.4,0,46.8,0,70.5,0
			c0,11.9,0,23.3,0,35.2c-11.7,0-23.1,0-35,0c0,12.2,0,23.9,0,36.2c23.6,0,47,0,71,0c0,12.1,0,23.6,0,35.5c12.2,0,23.8,0,35.8,0
			c0,11.9,0,23.5,0,35.6c-35.4,0-70.8,0-106.7,0c0,12.2,0,23.9,0,36.2c47.4,0,94.8,0,142.5,0c0,12,0,23.4,0,35.1
			c-23.7,0-47.2,0-71,0c0,12,0,23.8,0,36c67.3,0,134.7,0,202.3,0c6.7,29.5,9.8,58.9,11.1,89.2c-333.3,0-666.5,0-999.8,0
			c0-1.7,0-3.3,0-5c0.3-1.3,0.8-2.5,0.9-3.8c2-18.4,3.5-37,6.1-55.3c5-35.7,15.1-70.1,28.5-103.4c33.8-83.8,86.5-153.5,157.7-209.2
			c43.6-34.1,91.6-60.1,144-78C384.4,11.2,432.9,2,482.8,0.8c1.8,0,3.6-0.5,5.4-0.8C495.5,0,502.8,0,510.1,0z M464.3,250.2
			c0.5-77.8-62.5-142.4-141.3-143.2c-80.5-0.9-142.6,62.9-144.9,138.2c-2.5,82.3,63.1,146.9,141.4,147.7
			C399.9,393.8,464.6,329,464.3,250.2z"/>
	</g>
</g>
</svg>
