<?xml version="1.0" encoding="utf-8"?>
<!-- Generator: Adobe Illustrator 19.2.1, SVG Export Plug-In . SVG Version: 6.00 Build 0)  -->
<svg version="1.1" id="Layer_1" xmlns="http://www.w3.org/2000/svg" xmlns:xlink="http://www.w3.org/1999/xlink" x="0px" y="0px"
	 viewBox="0 0 1000 1000" style="enable-background:new 0 0 1000 1000;" xml:space="preserve">
<g id="d4QzzD.tif">
	<g>
		<path d="M487,0.6c9.3,0,18.7,0,28,0c6.9,0.6,13.8,1.4,20.8,1.9c23.4,1.7,46.3,5.8,68.8,12.1c80.3,22.5,146.8,65.5,196.2,133.4
			c22.9,31.5,39.4,66.3,48.3,104.3c3.1,13.5,5.4,27.2,8,40.9c-0.1,0,0.3,0.1,0.6,0c1.4-0.5,2.8-1,4.2-1.5
			c21.8-7.1,43.8-7.2,65.5,0.2c45,15.4,73.6,55.8,73.7,103.5c0.1,58.2,0.1,116.3-0.1,174.5c0,7.9-0.8,16-2.4,23.7
			c-5.1,24.1-17.1,44.5-36.2,60.2c-25.7,21.1-55.1,28.8-87.9,22.9c-7.7-1.4-15.2-4-22.1-5.8c-4.1,22-7.6,44.3-12.4,66.2
			c-4.5,20.4-11.2,40.3-24.5,57c-8.5,10.6-17.5,21-27.3,30.5c-19,18.2-38.3,36.1-58.1,53.4c-29.6,25.8-61,49.2-94.3,70.2
			c-26.4,16.6-53.7,31.4-83.2,42.1c-32.8,11.8-65.5,13.2-98.8,2.1c-26.1-8.7-50.5-20.8-74-34.8c-34.9-20.7-67.6-44.6-98.9-70.5
			c-29.3-24.2-57.4-49.7-83.2-77.7c-7.3-7.9-14.4-16.3-19.9-25.5c-14.7-24.7-20.1-52.6-24.6-80.6c-1.7-10.6-2.9-21.2-4.4-31.7
			c-0.9,0-1.4-0.1-1.9,0c-1.3,0.3-2.5,0.7-3.8,1.2c-17.2,6.5-35.2,8.1-52.9,4.5c-43.8-8.9-72.7-35-85.1-78.3c-2-6.9-2.7-14.2-4-21.4
			c0-63.3,0-126.7,0-190c0.8-5.2,1.2-10.5,2.4-15.6c8.2-35,28.3-60.6,60.9-75.9c17.6-8.2,36.3-11.6,55.7-8.6
			c8.6,1.4,17,3.5,25.5,5.3c1.6-9.9,2.7-20.1,4.8-30.1c11.9-55.6,37.6-104.1,76.1-145.8c37.1-40.1,81.6-69.7,132.5-89.5
			c34.7-13.5,70.6-22,107.8-24.9C473.5,2,480.2,1.3,487,0.6z M215,423.2c0,2.9,0,5.2,0,7.5c0,37.3,0.1,74.7,0,112
			c0,13.5-1.2,27-0.7,40.4c0.7,20.4,1.9,40.9,3.8,61.2c2,21.4,5,42.8,8,64.1c3.5,25.5,15,46.6,33.6,64.8
			c33.3,32.7,68.7,62.9,106.4,90.4c31.7,23.1,64.3,44.4,101.1,58.8c19.3,7.5,38.7,9.4,58.7,2.4c19.8-6.9,38.5-16,56.3-26.9
			c60-36.5,114.2-80.3,163.4-130.3c12.5-12.7,22.1-27.2,25.2-44.8c4.3-24.1,8.5-48.3,11-72.6c2.5-24.8,3.6-49.8,4.1-74.7
			c0.7-39.8,0.4-79.6,0.5-119.4c0-7.1,0.4-14.3,0.5-21.4c0.1-3.6,0-7.2,0-11.5c-56.4,10.8-110.9,7-163.6-14.5
			C570.2,386.9,528.5,352,501,300.3c-1.2,2-2.1,3.3-2.8,4.7c-23.7,43.6-59.2,74.7-103.2,96.4c-30.7,15.1-63.3,23.8-97.6,26.4
			c-21.6,1.6-43.2,1.5-64.6-1.9C227.1,424.9,221.4,424.1,215,423.2z"/>
		<path d="M428.1,572.1c0.4,18.2-14.1,35.5-35.3,35.3c-20.4-0.2-35.3-14.9-35.3-35.4c0-21.4,16.6-35.2,35.4-35.3
			C413.1,536.6,428.7,553.5,428.1,572.1z"/>
		<path d="M571.8,572.2c0-19.8,15.5-35.5,35.2-35.5c18.1,0,35.4,13.6,35.4,35.3c0,20.6-15.2,35.3-35.3,35.5
			C585.9,607.6,571.5,590.4,571.8,572.2z"/>
	</g>
</g>
</svg>
