<?xml version="1.0" ?><!DOCTYPE svg  PUBLIC '-//W3C//DTD SVG 1.1//EN'  'http://www.w3.org/Graphics/SVG/1.1/DTD/svg11.dtd'><svg enable-background="new 0 0 28 28" version="1.1" viewBox="0 0 28 28" xml:space="preserve" xmlns="http://www.w3.org/2000/svg" xmlns:xlink="http://www.w3.org/1999/xlink"><g id="Layer_1"><path d="M25.316,10.009C24.963,9.388,24.506,9,24,9c-1.162-4.616-4.923-9-8.236-9C15.17,0,14.577,0.145,14,0.402   C13.423,0.145,12.83,0,12.236,0C8.923,0,5.162,4.384,4,9c-0.506,0-0.963,0.388-1.316,1.009C1.126,10.056,0,11.715,0,14   c0,2.318,1.156,4,2.75,4c0.314,0,0.605-0.082,0.88-0.205c0.708,2.119,2.006,2.765,2.87,2.957V24c0,0.276,0.224,0.5,0.5,0.5   s0.5-0.224,0.5-0.5v-1.152c0.722,1.294,2.177,2.319,4,2.817V26.5c0,0.276,0.224,0.5,0.5,0.5s0.5-0.224,0.5-0.5v-0.618   c0.325,0.051,0.66,0.083,1,0.1V27.5c0,0.276,0.224,0.5,0.5,0.5s0.5-0.224,0.5-0.5v-1.518c0.34-0.017,0.675-0.049,1-0.1V26.5   c0,0.276,0.224,0.5,0.5,0.5s0.5-0.224,0.5-0.5v-0.834c1.823-0.499,3.278-1.523,4-2.817V24c0,0.276,0.224,0.5,0.5,0.5   s0.5-0.224,0.5-0.5v-3.249c0.869-0.193,2.164-0.842,2.87-2.956C24.645,17.918,24.936,18,25.25,18c1.594,0,2.75-1.682,2.75-4   C28,11.715,26.874,10.056,25.316,10.009z M2.75,16.5c-0.69,0-1.25-1.119-1.25-2.5c0-0.826,0.203-1.553,0.512-2.008   c0.72,0.181,1.602,0.862,1.889,2.986C3.71,15.873,3.267,16.5,2.75,16.5z M17.099,11.072c0.252-0.253,1.09,0.176,1.871,0.957   s1.209,1.619,0.957,1.871c-0.252,0.252-1.09-0.176-1.871-0.957C17.275,12.163,16.847,11.325,17.099,11.072z M9.056,12.03   c0.781-0.781,1.619-1.21,1.871-0.957c0.252,0.252-0.176,1.09-0.957,1.871c-0.781,0.781-1.619,1.21-1.871,0.957   C7.847,13.648,8.275,12.811,9.056,12.03z M20.958,18.821c-0.06,0.008-0.119,0.012-0.178,0.012c-1.125,0-2.086-1.39-2.196-1.556   C16.754,14.532,14.027,14.5,14,14.5c-0.11,0.001-2.767,0.051-4.584,2.777c-0.116,0.175-1.182,1.693-2.374,1.544   c-0.668-0.09-1.179-0.649-1.517-1.663l0.949-0.316c0.198,0.595,0.453,0.955,0.699,0.988c0.424,0.061,1.088-0.627,1.41-1.108   C10.708,13.537,13.866,13.5,14,13.5s3.292,0.037,5.416,3.223c0.323,0.48,1.011,1.168,1.41,1.107   c0.246-0.033,0.501-0.394,0.699-0.988l0.949,0.316C22.137,18.172,21.626,18.731,20.958,18.821z M25.25,16.5   c-0.517,0-0.96-0.627-1.15-1.522c0.286-2.125,1.169-2.805,1.889-2.986C26.297,12.447,26.5,13.174,26.5,14   C26.5,15.381,25.94,16.5,25.25,16.5z"/></g></svg>