<?xml version="1.0" ?><svg baseProfile="tiny" height="512px" id="Layer_1" version="1.2" viewBox="0 0 512 512" width="512px" xml:space="preserve" xmlns="http://www.w3.org/2000/svg" xmlns:xlink="http://www.w3.org/1999/xlink"><path d="M200.356,273.221c-9.961,0-18.021,8.061-18.021,18.021s8.061,18.021,18.021,18.021s18.021-8.061,18.021-18.021  S210.317,273.221,200.356,273.221"/><path d="M308.486,273.221c-9.962,0-18.021,8.061-18.021,18.021s8.06,18.021,18.021,18.021c9.961,0,18.021-8.061,18.021-18.021  S318.447,273.221,308.486,273.221"/><path d="M453.187,147.063c-6.641,0-12.941,1.384-18.831,3.596C426.225,67.855,349.069,2.891,254.949,2.891  c-94.121,0-171.275,64.964-179.418,147.769c-5.878-2.212-12.179-3.596-18.819-3.596c-29.743,0-54.065,24.333-54.065,54.064v90.114  c0,29.73,24.322,54.064,54.065,54.064c7.215,0,14.103-1.502,20.427-4.083c2.921,28.064,7.826,46.298,15.088,58.147  c13.915,21.495,106.769,108.13,162.194,108.13c55.437,0,148.326-86.705,161.784-107.496c7.544-12.296,12.577-30.834,15.534-59.203  c6.594,2.862,13.833,4.505,21.447,4.505c29.731,0,54.065-24.334,54.065-54.064v-90.114  C507.252,171.397,482.918,147.063,453.187,147.063 M385.946,380.435c-12.449,19.242-95.834,91.023-131.525,91.023  c-35.703,0-119.076-71.781-131.466-90.941c-8.236-13.422-11.463-49.5-12.613-85.051c0.118-1.408,0.434-2.769,0.434-4.224V219.15  c0-1.021,0.129-2.006,0.153-3.027c9.351,1.924,19.065,3.027,29.097,3.027c51.448,0,95.587-26.745,114.923-64.971  c19.336,38.226,63.486,64.971,114.911,64.971c10.031,0,19.758-1.103,29.109-3.027c0.023,1.021,0.152,2.006,0.152,3.027  c0,1.995-0.223,3.93-0.306,5.913C399.345,262.309,400.46,356.781,385.946,380.435"/></svg>