<?xml version="1.0" ?><svg baseProfile="tiny" height="512px" id="Layer_1" version="1.2" viewBox="0 0 512 512" width="512px" xml:space="preserve" xmlns="http://www.w3.org/2000/svg" xmlns:xlink="http://www.w3.org/1999/xlink"><path d="M502.388,10.417c-5.578-5.918-14.907-6.211-20.813-0.633L220.179,255.586l50.353,21.576L502.388,30.609  C507.661,24.983,507.731,16.124,502.388,10.417" fill="#EE3044"/><polygon points="225.616,350.068 276.438,299.241 187.499,261.129 162.085,286.549 155.733,280.186 143.024,292.9 149.388,299.241   123.968,324.66 187.499,388.18 212.907,362.771 219.265,369.124 231.962,356.408 "/><polygon points="123.974,350.068 111.264,337.353 22.337,426.291 35.036,439.007 "/><polygon points="149.382,375.476 136.678,362.771 47.751,451.699 60.449,464.414 "/><polygon points="73.153,477.118 85.862,489.822 174.801,400.883 162.091,388.18 "/><polygon points="3.276,458.062 54.103,508.878 66.795,496.174 15.985,445.347 "/></svg>