<?xml version="1.0" encoding="utf-8"?>
<!-- Generator: Adobe Illustrator 19.2.1, SVG Export Plug-In . SVG Version: 6.00 Build 0)  -->
<svg version="1.1" id="Layer_1" xmlns="http://www.w3.org/2000/svg" xmlns:xlink="http://www.w3.org/1999/xlink" x="0px" y="0px"
	 viewBox="0 0 1000 1000" style="enable-background:new 0 0 1000 1000;" xml:space="preserve">
<style type="text/css">
	.st0{fill:#E3233C;}
	.st1{fill:#090909;}
</style>
<g id="hJhWze.tif">
	<g>
		<path class="st0" d="M998.9,34c-4.1,14.6-15.8,23.4-25.5,33.6C897,149.1,820.5,230.3,744,311.6
			c-68.3,72.6-136.5,145.2-204.8,217.7c-3.1,3.2-5.4,8.6-9.4,9.1c-3.9,0.5-8.2-2.8-12.3-4.6c-28.8-12.4-57.6-24.8-87-37.4
			c10.8-10.2,21.4-20.3,32.1-30.3c42-39.5,84-78.9,126-118.4c48.4-45.5,96.9-91.1,145.3-136.6c41-38.6,82-77.2,123.1-115.8
			c30.1-28.3,60.2-56.6,90.2-85c5.4-5.1,11.7-8.2,18.7-10.3c2,0,4,0,6,0c0.5,0.3,1.1,0.7,1.7,0.8c8.7,0.9,15.1,5.4,20.1,12.2
			c2.7,3.6,3.2,8.1,5.2,12C998.9,28,998.9,31,998.9,34z"/>
		<path class="st1" d="M276.7,570.6c7.8-7.7,15.4-15.2,22.8-22.8c1.9-1.9,2.9-2,4.7,0c2.4,2.7,5.3,5.1,7.7,7.9c2,2.5,3.2,2.1,5.3,0
			c14.4-14.6,29.1-28.9,43.3-43.6c3.2-3.3,5.7-4,10-2.1c56,24.2,112,48.1,168,72.1c0.8,0.3,1.5,0.8,2.2,1.2
			c-33.6,33.5-67.1,67-100.8,100.7c3.9,3.8,7,7.1,10.4,10.1c2.4,2.1,2.6,3.4,0.1,5.8c-7.5,7.1-14.7,14.5-22.5,22.4
			c-3-3.1-6.1-6-8.8-9.2c-2.6-3.2-4.3-3.2-7.3-0.1c-14.4,14.8-29.2,29.2-43.7,44c-2.6,2.7-3.9,2.6-6.4,0
			c-39.7-39.9-79.6-79.8-119.5-119.5c-3.1-3.1-2.6-4.5,0.2-7.2c14.8-14.5,29.2-29.2,43.9-43.7c2.5-2.5,2.6-3.9,0-6.2
			C283.1,577.2,280,573.9,276.7,570.6z"/>
		<path class="st1" d="M112.1,911.5c-0.8-1.1-1.4-2.1-2.3-2.9c-6.5-6.5-12.8-13.1-19.5-19.4c-2.8-2.6-2.1-3.8,0.2-6.1
			c47.1-46.9,94.1-94,141.1-141c9.8-9.8,19.6-19.5,29.3-29.4c2.3-2.3,3.5-2.9,6.1-0.2c6.2,6.7,12.8,13.1,19.4,19.5
			c2.1,2,2.5,3,0.2,5.4c-57.2,57.1-114.4,114.2-171.5,171.4C114.3,909.6,113.4,910.3,112.1,911.5z"/>
		<path class="st1" d="M36.8,835.7c10.8-10.8,21.3-21.3,31.8-31.7c47.1-47.1,94.3-94.1,141.3-141.3c2.9-2.9,4.5-3,7.3,0
			c5.9,6.3,12,12.5,18.4,18.4c2.9,2.7,2.4,4.1-0.2,6.6c-51.7,51.5-103.3,103-154.9,154.6c-5.4,5.4-10.8,10.8-16.3,16.2
			c-1.2,1.2-2.1,2.5-4,0.6C52.6,851.3,44.7,843.6,36.8,835.7z"/>
		<path class="st1" d="M339,784.9c-0.4,1.8-1.8,2.6-2.8,3.6c-16,16-32,32.1-48,48.1c-40.6,40.6-81.2,81.3-121.7,122
			c-2.8,2.8-4.2,2.7-6.8-0.1c-6.1-6.6-12.5-12.9-19-19.1c-2.3-2.2-2-3.3,0.1-5.4c57-57,114-114,170.9-171.1c2.3-2.3,3.5-2.4,5.8,0
			c6.3,6.6,12.9,13,19.4,19.5C337.6,783.3,338.3,784.2,339,784.9z"/>
		<path class="st1" d="M125,974.9c-7.7,7.6-15.5,15.1-23.1,22.8c-1.9,1.9-2.8,1.3-4.4-0.3c-32-32.1-64.1-64.1-96.1-96.1
			c-1.6-1.5-2.1-2.5-0.3-4.4c7.7-7.6,15.2-15.4,22.8-23.1C57.8,907.6,91.2,941.1,125,974.9z"/>
	</g>
</g>
</svg>
