<?xml version="1.0" encoding="utf-8"?>
<!-- Generator: Adobe Illustrator 19.2.1, SVG Export Plug-In . SVG Version: 6.00 Build 0)  -->
<svg version="1.1" id="Layer_1" xmlns="http://www.w3.org/2000/svg" xmlns:xlink="http://www.w3.org/1999/xlink" x="0px" y="0px"
	 viewBox="0 0 1000 1000" style="enable-background:new 0 0 1000 1000;" xml:space="preserve">
<g id="b9QHHU.tif">
	<g>
		<path d="M1001,630.9c0,7,0,14,0,21c-0.3,0.6-0.7,1.1-0.9,1.7c-3.6,10.8-6.3,22.1-10.9,32.4c-11.1,24.6-27.3,46-44,67.1
			c-14.7,18.5-29.6,36.9-44.2,55.5c-4.1,5.2-6.4,11-6.5,17.9c-0.6,28.5-6.3,55.8-19.1,81.3c-13.9,27.6-34,49.5-60.5,65.5
			c-23,13.8-48,21.5-74.6,24.9c-46.4,5.8-89.3-2.8-128.6-28.7c-2.7-1.8-3.6-3.5-3.6-6.8c0.2-35,0.2-70,0.1-105
			c-0.1-17.7-11.8-32-28.6-35.6c-16.2-3.4-32,5.2-39.3,21.3c-0.5,1.2-1.3,2.2-2,3.3c-1.5-5.3-1.4-10.3-2.4-15.1
			c-3.7-17.5-19.5-28.9-38-27.7c-16.6,1-30.4,14.9-32,32.2c-0.3,3.5-0.6,7-1,10.5c-0.4,0.1-0.9,0.1-1.3,0.2
			c-0.8-1.6-1.6-3.1-2.3-4.7c-7.6-16.4-25.4-24.3-42.5-18.8c-15.1,4.8-24.7,18.3-24.8,34.9c-0.1,35,0,70-0.1,105
			c0,1.9-1.2,4.5-2.7,5.6c-27.1,18.6-57.2,28.9-89.9,30.8c-34.6,2-68-3.4-99.5-18.4c-33.6-16.1-58.9-40.8-75.4-74.2
			c-11.6-23.6-17.8-48.7-18.3-75c-0.2-10.5-3.1-19.6-9.8-27.5c-1.1-1.3-2-2.7-3-4c-15.2-18.9-30.8-37.7-45.7-56.9
			c-17.3-22.3-33.3-45.4-42.9-72.2c-2.3-6.3-3.7-13-5.6-19.5c0-7,0-14,0-21c0.9-4.9,1.6-9.8,2.7-14.6c7.9-36.3,29.8-61.4,62.5-77.6
			c4.7-2.4,6.2-4.9,6.2-10.1c-0.2-56-0.2-112-0.1-168c0-20.6,10.6-38.5,33.5-39.4c0.6,0,1.3-0.3,2.4-0.6c0-11.5,0-23.1,0-34.7
			c262.2,0,523.8,0,785.8,0c0,11.9,0,23.3,0,35c2.2,0.3,4,0.6,5.8,0.8c11.7,1.3,20.8,6.9,25.2,17.8c2.8,6.7,4.6,14.4,4.6,21.7
			c0.4,56,0.3,112,0.1,167.9c0,4.8,1.3,7.2,5.7,9.4c29.1,14.2,50.2,35.8,60.1,67.2C998.1,613.9,999.2,622.5,1001,630.9z
			 M179.9,357.2c0,1.8,0,3.2,0,4.5c0.8,22.8,3.4,45.4,9,67.6c4.2,16.5,10,32.4,19.8,46.5c9.8,14,22.6,23,40,23.9
			c12,0.6,23.4-2.7,34.4-7.1c25.1-9.9,47.7-24.2,69.5-39.9c39-28,75-59.7,109.6-93c0.6-0.6,1.1-1.4,2-2.5
			C369.3,357.2,274.9,357.2,179.9,357.2z M822.7,357.3c-95.7,0-190,0-284.4,0c-0.4,0.5-0.9,1.1-1.3,1.6c1.4,0.8,3.1,1.4,4.3,2.4
			c11.9,10.9,23.5,22.1,35.6,32.8c33.8,29.9,68.6,58.6,107.7,81.6c15.6,9.2,31.8,17.3,49.6,21.8c23.8,6.1,43.7-0.3,57.4-19.5
			c5.7-8,10.5-17,14.3-26.2c8.1-19.5,11.9-40.1,14.1-61C821.1,379.9,821.7,368.8,822.7,357.3z M269,821.6
			c-29.5-0.1-53.3,23.4-53.6,53c-0.4,29.3,24,53.6,53.6,53.6c29.6-0.1,53.2-23.7,53.2-53.3C322.2,845.3,298.7,821.7,269,821.6z
			 M786.6,874.8c-0.2-29.5-24-53.2-53.5-53.2c-29.8,0-53.5,23.8-53.3,53.7c0.2,29.6,24,53.1,53.6,52.9
			C762.9,928,786.8,904,786.6,874.8z M536.2,621.6c0-21.3,0-41.5,0-61.7c-23.8-5.3-47.2-5.3-70.5,0.1c0,20.4,0,40.6,0,61.4
			C489.4,615.5,512.6,615.5,536.2,621.6z M573.6,570.3c-0.6,1.5-0.9,1.8-0.9,2.1c0,19.5-0.1,38.9,0,58.4c0,1.4,1.9,3.3,3.3,4
			c18.2,8.9,36.5,17.6,54.8,26.3c4,1.9,8.1,3.4,12.5,5.3c0.3-1.4,0.5-2,0.5-2.7c0-14.6,0.1-29.3-0.1-43.9c0-1.6-1.3-3.8-2.6-4.8
			c-10.6-8.3-21-17-32.2-24.4C597.7,583.3,585.5,577.1,573.6,570.3z M429.4,571.1c-1.5,0.5-2.1,0.6-2.7,0.9
			c-24.6,10.9-46.2,26.4-66.5,43.7c-1.2,1-1.9,3.1-1.9,4.7c-0.2,7.5-0.1,15-0.1,22.5c0,7.6,0,15.2,0,23.8c4.8-2,8.8-3.4,12.7-5.3
			c14.2-6.9,28.4-13.9,42.6-20.8c5.2-2.5,12.6-3.7,15.1-7.8c2.7-4.4,0.9-11.6,0.9-17.6C429.4,600.7,429.4,586.2,429.4,571.1z
			 M321.9,643.3c-1.4,0.3-2.5,0.5-3.6,0.8c-19.1,6-38.3,12.1-57.4,18.2c-6.6,2.1-10.3,6-9.7,9.8c0.7,4.1,4.7,6.2,12.2,6.2
			c16.5,0.1,32.9,0,49.4,0c2.9,0,5.9,0,9.1,0C321.9,666.3,321.9,654.9,321.9,643.3z M680,678.1c21.2,0,41.8,0,62.4,0
			c1,0,2-0.2,2.9-0.5c6-2,7.3-7.8,2.4-11.8c-2.1-1.7-4.9-2.9-7.5-3.7c-18.6-6-37.3-11.8-55.9-17.7c-1.3-0.4-2.7-0.6-4.2-0.9
			C680,655.1,680,666.3,680,678.1z"/>
		<path d="M310-0.1c127.3,0,254.7,0,382,0c6.9,1,13.8,1.8,20.6,3C778.5,14.8,828.7,49.6,864,106.2c27.4,43.9,32.2,92.6,29.7,142.8
			c0,0.3-0.4,0.5-0.6,0.6c-261.6,0-523.1,0-785.1,0c0-13.5-0.2-26.8,0-40.1c0.4-20.8,3.8-41,10.4-60.7c15.3-46,43.4-82.4,82.9-110.1
			C226.2,21.2,253.7,9.7,283.5,4C292.2,2.3,301.2,1.3,310-0.1z"/>
		<path d="M518.9,910.8c0,23.7,0.1,47.3,0,71c-0.1,13.2-12.8,21.7-24.7,16.9c-6.9-2.8-11.1-9.4-11.1-17.9c0-27.7,0-55.3,0-83
			c0-19.5-0.1-39,0.1-58.5c0.1-8.7,5.6-15.5,13.7-17.4c8-1.9,16.3,1.5,19.8,8.9c1.5,3.2,2.2,7,2.2,10.5
			C519,864.4,518.9,887.6,518.9,910.8z"/>
		<path d="M447.6,910.9c0,16.5,0,33,0,49.5c0,3-0.2,6-0.9,8.9c-2.1,8.2-10.1,13.3-19.1,12.6c-8.1-0.7-14.7-7.3-15.6-15.6
			c-0.2-1.7-0.3-3.3-0.3-5c0-33.8,0-67.6,0-101.4c0-11.4,4.6-17.9,14-20.2c9.6-2.3,19.6,4.1,21.3,13.9c0.6,3.7,0.6,7.6,0.6,11.4
			C447.7,880.3,447.6,895.6,447.6,910.9z"/>
		<path d="M590.1,910.9c0,18.3,0.2,36.6-0.1,55c-0.1,7-4.2,11.9-10.4,14.6c-6.2,2.7-12.4,2-17.9-2.1c-6-4.4-7.3-10.8-7.3-17.7
			c0-28,0-56,0-83.9c0-6.2-0.2-12.3,0.1-18.5c0.3-9.9,5.2-16.3,13.7-18.6c10.5-2.7,20.9,4.4,22,15.2c0.2,2.1,0.3,4.3,0.3,6.5
			c0,16.5,0,33,0,49.5C590.2,910.9,590.2,910.9,590.1,910.9z"/>
	</g>
</g>
</svg>
