<?xml version="1.0" ?><!DOCTYPE svg  PUBLIC '-//W3C//DTD SVG 1.1//EN'  'http://www.w3.org/Graphics/SVG/1.1/DTD/svg11.dtd'><svg enable-background="new 0 0 28 24" version="1.1" viewBox="0 0 28 24" xml:space="preserve" xmlns="http://www.w3.org/2000/svg" xmlns:xlink="http://www.w3.org/1999/xlink"><g id="Layer_1"><g><path d="M8,14.5c-0.133,0-0.261-0.019-0.389-0.039L4.033,24h7.933l-3.577-9.539C8.261,14.481,8.133,14.5,8,14.5z"/><path d="M5.55,12.5H0l3.103,11.135l3.571-9.523C6.106,13.755,5.689,13.18,5.55,12.5z"/><path d="M10.45,12.5c-0.138,0.68-0.556,1.255-1.124,1.612l3.571,9.523L15.867,12.5H10.45z"/><path d="M6.674,9.888L3.103,0.365L0,11.5h5.55C5.689,10.82,6.106,10.245,6.674,9.888z"/><path d="M8,9.5c0.133,0,0.261,0.019,0.389,0.039L11.967,0H4.033l3.577,9.539C7.739,9.519,7.867,9.5,8,9.5z"/><path d="M10.45,11.5h5.417L12.897,0.365L9.326,9.888C9.894,10.245,10.311,10.82,10.45,11.5z"/><circle cx="8" cy="12" r="1"/><path d="M16.593,10.341L17.035,12l-0.442,1.659C16.863,13.808,17.17,13.9,17.5,13.9c1.048,0,1.9-0.852,1.9-1.9s-0.852-1.9-1.9-1.9    C17.17,10.1,16.863,10.192,16.593,10.341z"/><path d="M17.75,9.6c0,0.01-0.009,0.015-0.01,0.025c0.481,0.048,0.916,0.235,1.271,0.525c0.006-0.007,0.003-0.017,0.01-0.023    l0.936-0.936c-0.6-0.525-1.363-0.858-2.207-0.915V9.6z"/><path d="M16.115,8.548l0.348,1.304c0.246-0.118,0.514-0.199,0.798-0.228c-0.001-0.009-0.01-0.015-0.01-0.025V8.275    C16.849,8.302,16.472,8.406,16.115,8.548z"/><path d="M17.25,15.725V14.4c0-0.01,0.009-0.015,0.01-0.025c-0.284-0.029-0.552-0.11-0.798-0.228l-0.348,1.304    C16.472,15.594,16.849,15.698,17.25,15.725z"/><path d="M21.225,12.25H19.9c-0.01,0-0.015-0.009-0.025-0.01c-0.048,0.481-0.235,0.916-0.525,1.271    c0.007,0.006,0.017,0.003,0.023,0.01l0.936,0.936C20.835,13.857,21.168,13.094,21.225,12.25z"/><path d="M20.31,9.543l-0.936,0.936c-0.006,0.006-0.016,0.004-0.023,0.01c0.29,0.355,0.477,0.79,0.525,1.271    c0.009-0.001,0.015-0.01,0.025-0.01h1.324C21.168,10.906,20.835,10.143,20.31,9.543z"/><path d="M19.957,14.81l-0.936-0.936c-0.006-0.006-0.004-0.016-0.01-0.023c-0.355,0.29-0.79,0.477-1.271,0.525    c0.001,0.009,0.01,0.015,0.01,0.025v1.324C18.594,15.668,19.357,15.335,19.957,14.81z"/><path d="M24.8,0h-9.6l-0.682,2.56L15.435,6H17c3.359,0,6,2.767,6,6v0c0,3.314-2.686,6-6,6h-1.565l-0.917,3.44L15.2,24h9.6L28,12    L24.8,0z"/></g></g></svg>